<svg width="374" height="242" viewBox="0 0 374 242" fill="none" xmlns="http://www.w3.org/2000/svg">
<circle cx="187" cy="67.5" r="67.5" fill="#1E90FF"/>
<path d="M230.043 59.8687C231.979 60.5539 232.992 62.6748 232.307 64.6112L232.314 64.606L227.448 78.3884C226.546 80.9323 224.855 83.1245 222.625 84.638L197.977 101.365C196.616 102.289 194.77 101.935 193.846 100.574L190.506 95.6521C189.582 94.2909 189.935 92.4448 191.297 91.5211L194.127 89.6005L195.701 84.4886C196.502 81.912 198.154 79.6789 200.392 78.1602L212.566 69.8986C213.927 68.9748 215.773 69.3282 216.697 70.6894C217.62 72.0506 217.267 73.8966 215.906 74.8204L209.754 78.9956C209.077 79.4548 208.899 80.3843 209.358 81.0611C209.817 81.7378 210.747 81.9158 211.424 81.4565L220.698 75.1624L225.3 62.1324C225.986 60.196 228.107 59.1835 230.043 59.8687Z" fill="white"/>
<path d="M142.747 59.8687C140.811 60.5539 139.798 62.6748 140.484 64.6112L140.476 64.606L145.343 78.3883C146.244 80.9323 147.936 83.1245 150.166 84.638L174.813 101.365C176.175 102.289 178.021 101.935 178.944 100.574L182.285 95.6521C183.208 94.2909 182.855 92.4448 181.494 91.5211L178.664 89.6005L177.089 84.4886C176.288 81.912 174.636 79.6789 172.398 78.1601L160.225 69.8985C158.863 68.9748 157.017 69.3282 156.094 70.6894C155.17 72.0506 155.523 73.8966 156.884 74.8204L163.037 78.9956C163.714 79.4548 163.891 80.3843 163.432 81.0611C162.973 81.7378 162.043 81.9157 161.367 81.4565L152.092 75.1624L147.49 62.1324C146.805 60.196 144.684 59.1835 142.747 59.8687Z" fill="white"/>
<path fill-rule="evenodd" clip-rule="evenodd" d="M205.923 38.3269C207.303 39.7543 208.407 41.4525 209.172 43.3265C209.966 45.2769 210.371 47.3479 210.365 49.4794C210.365 51.4901 209.977 53.5853 209.206 55.7168C208.567 57.4981 207.636 59.3457 206.454 61.2115C204.581 64.1642 202.006 67.2436 198.809 70.3654C193.504 75.54 188.263 79.1086 188.04 79.2595L186.687 80.1773C186.087 80.5819 185.317 80.5819 184.717 80.1773L183.364 79.2595C183.141 79.1146 177.894 75.54 172.595 70.3654C169.398 67.2436 166.823 64.1642 164.95 61.2115C163.768 59.3457 162.843 57.4981 162.198 55.7168C161.427 53.5853 161.039 51.4901 161.039 49.4794C161.039 47.3479 161.444 45.2769 162.238 43.3265C163.001 41.4513 164.105 39.7527 165.486 38.3269C166.874 36.8899 168.49 35.7607 170.283 34.9758C172.138 34.1606 174.103 33.75 176.13 33.75C178.944 33.75 181.691 34.5652 184.078 36.1049C184.649 36.4732 185.191 36.8778 185.705 37.3186C186.219 36.8778 186.761 36.4732 187.332 36.1049C189.719 34.5652 192.465 33.75 195.28 33.75C197.287 33.7451 199.274 34.1618 201.127 34.9758C202.914 35.7577 204.542 36.8953 205.923 38.3269ZM185.197 58.2881V64.2843H188.173V58.2881H194.169V55.3121H188.173V49.3269H185.197V55.3121H179.212V58.2881H185.197Z" fill="white"/>
<path d="M6.37 233V184H15.96L33.81 213.05L27.51 212.98L45.57 184H54.74V233H44.45V216.2C44.45 212 44.5433 208.22 44.73 204.86C44.9633 201.5 45.3367 198.163 45.85 194.85L47.11 198.14L32.76 220.4H28.14L14.07 198.28L15.26 194.85C15.7733 197.977 16.1233 201.197 16.31 204.51C16.5433 207.777 16.66 211.673 16.66 216.2V233H6.37ZM83.6533 233.7C79.6399 233.7 76.1399 232.883 73.1533 231.25C70.1666 229.617 67.8333 227.377 66.1533 224.53C64.4733 221.683 63.6333 218.417 63.6333 214.73C63.6333 211.883 64.0999 209.27 65.0333 206.89C65.9666 204.51 67.2733 202.457 68.9533 200.73C70.6333 198.957 72.6166 197.603 74.9033 196.67C77.2366 195.69 79.7566 195.2 82.4633 195.2C84.9833 195.2 87.3166 195.667 89.4633 196.6C91.61 197.487 93.4533 198.77 94.9933 200.45C96.5799 202.083 97.7933 204.02 98.6333 206.26C99.4733 208.5 99.8466 210.95 99.7533 213.61L99.6833 216.69H69.9333L68.3233 210.6H91.4933L90.3733 211.86V210.32C90.2799 209.06 89.8599 207.917 89.1133 206.89C88.4133 205.863 87.5033 205.07 86.3833 204.51C85.2633 203.95 84.0033 203.67 82.6033 203.67C80.5499 203.67 78.7999 204.067 77.3533 204.86C75.9533 205.653 74.8799 206.82 74.1333 208.36C73.3866 209.9 73.0133 211.767 73.0133 213.96C73.0133 216.2 73.4799 218.137 74.4133 219.77C75.3933 221.403 76.7466 222.687 78.4733 223.62C80.2466 224.507 82.3233 224.95 84.7033 224.95C86.3366 224.95 87.8299 224.693 89.1833 224.18C90.5366 223.667 91.9833 222.78 93.5233 221.52L98.2833 228.17C96.9299 229.383 95.4366 230.41 93.8033 231.25C92.1699 232.043 90.4899 232.65 88.7633 233.07C87.0366 233.49 85.3333 233.7 83.6533 233.7ZM121.589 233.7C118.369 233.7 115.476 232.883 112.909 231.25C110.342 229.57 108.312 227.307 106.819 224.46C105.372 221.567 104.649 218.23 104.649 214.45C104.649 210.763 105.372 207.473 106.819 204.58C108.312 201.687 110.319 199.4 112.839 197.72C115.406 196.04 118.322 195.2 121.589 195.2C123.316 195.2 124.972 195.48 126.559 196.04C128.192 196.553 129.639 197.277 130.899 198.21C132.206 199.143 133.256 200.193 134.049 201.36C134.842 202.48 135.286 203.67 135.379 204.93L132.859 205.35V181.2H142.799V233H133.419L132.999 224.46L134.959 224.67C134.866 225.837 134.446 226.957 133.699 228.03C132.952 229.103 131.949 230.083 130.689 230.97C129.476 231.81 128.076 232.487 126.489 233C124.949 233.467 123.316 233.7 121.589 233.7ZM123.829 225.44C125.696 225.44 127.329 224.973 128.729 224.04C130.129 223.107 131.226 221.823 132.019 220.19C132.812 218.557 133.209 216.643 133.209 214.45C133.209 212.303 132.812 210.413 132.019 208.78C131.226 207.1 130.129 205.817 128.729 204.93C127.329 203.997 125.696 203.53 123.829 203.53C121.962 203.53 120.329 203.997 118.929 204.93C117.576 205.817 116.502 207.1 115.709 208.78C114.962 210.413 114.589 212.303 114.589 214.45C114.589 216.643 114.962 218.557 115.709 220.19C116.502 221.823 117.576 223.107 118.929 224.04C120.329 224.973 121.962 225.44 123.829 225.44ZM190.57 240.7L171.88 215.71L179.79 210.18L198.27 235.03L190.57 240.7ZM175.59 233.7C171.996 233.7 168.683 233.07 165.65 231.81C162.616 230.55 159.956 228.8 157.67 226.56C155.43 224.273 153.703 221.59 152.49 218.51C151.276 215.383 150.67 212 150.67 208.36C150.67 204.673 151.276 201.313 152.49 198.28C153.703 195.2 155.43 192.517 157.67 190.23C159.956 187.943 162.616 186.17 165.65 184.91C168.683 183.65 171.996 183.02 175.59 183.02C179.23 183.02 182.543 183.65 185.53 184.91C188.563 186.17 191.2 187.943 193.44 190.23C195.726 192.517 197.476 195.2 198.69 198.28C199.903 201.36 200.51 204.72 200.51 208.36C200.51 212 199.903 215.36 198.69 218.44C197.476 221.52 195.726 224.203 193.44 226.49C191.2 228.777 188.563 230.55 185.53 231.81C182.543 233.07 179.23 233.7 175.59 233.7ZM175.59 223.76C177.643 223.76 179.533 223.387 181.26 222.64C183.033 221.893 184.55 220.82 185.81 219.42C187.07 218.02 188.05 216.387 188.75 214.52C189.496 212.653 189.87 210.6 189.87 208.36C189.87 206.12 189.496 204.067 188.75 202.2C188.05 200.333 187.07 198.723 185.81 197.37C184.55 195.97 183.033 194.897 181.26 194.15C179.533 193.357 177.643 192.96 175.59 192.96C173.536 192.96 171.646 193.357 169.92 194.15C168.193 194.897 166.676 195.97 165.37 197.37C164.063 198.723 163.06 200.333 162.36 202.2C161.706 204.067 161.38 206.12 161.38 208.36C161.38 210.6 161.706 212.653 162.36 214.52C163.06 216.387 164.063 218.02 165.37 219.42C166.676 220.82 168.193 221.893 169.92 222.64C171.646 223.387 173.536 223.76 175.59 223.76ZM221.353 233.7C218.646 233.7 216.313 233.117 214.353 231.95C212.439 230.737 210.946 229.033 209.873 226.84C208.846 224.6 208.333 221.917 208.333 218.79V195.97H218.273V217.18C218.273 218.86 218.553 220.33 219.113 221.59C219.673 222.803 220.466 223.737 221.493 224.39C222.519 225.043 223.779 225.37 225.273 225.37C226.346 225.37 227.349 225.207 228.283 224.88C229.216 224.507 230.009 223.993 230.663 223.34C231.316 222.687 231.829 221.917 232.203 221.03C232.576 220.143 232.763 219.187 232.763 218.16V195.97H242.703V233H233.253L232.903 225.37L234.723 224.53C234.163 226.257 233.229 227.82 231.923 229.22C230.616 230.62 229.053 231.717 227.233 232.51C225.413 233.303 223.453 233.7 221.353 233.7ZM270.274 233.7C266.261 233.7 262.761 232.883 259.774 231.25C256.788 229.617 254.454 227.377 252.774 224.53C251.094 221.683 250.254 218.417 250.254 214.73C250.254 211.883 250.721 209.27 251.654 206.89C252.588 204.51 253.894 202.457 255.574 200.73C257.254 198.957 259.238 197.603 261.524 196.67C263.858 195.69 266.378 195.2 269.084 195.2C271.604 195.2 273.938 195.667 276.084 196.6C278.231 197.487 280.074 198.77 281.614 200.45C283.201 202.083 284.414 204.02 285.254 206.26C286.094 208.5 286.468 210.95 286.374 213.61L286.304 216.69H256.554L254.944 210.6H278.114L276.994 211.86V210.32C276.901 209.06 276.481 207.917 275.734 206.89C275.034 205.863 274.124 205.07 273.004 204.51C271.884 203.95 270.624 203.67 269.224 203.67C267.171 203.67 265.421 204.067 263.974 204.86C262.574 205.653 261.501 206.82 260.754 208.36C260.008 209.9 259.634 211.767 259.634 213.96C259.634 216.2 260.101 218.137 261.034 219.77C262.014 221.403 263.368 222.687 265.094 223.62C266.868 224.507 268.944 224.95 271.324 224.95C272.958 224.95 274.451 224.693 275.804 224.18C277.158 223.667 278.604 222.78 280.144 221.52L284.904 228.17C283.551 229.383 282.058 230.41 280.424 231.25C278.791 232.043 277.111 232.65 275.384 233.07C273.658 233.49 271.954 233.7 270.274 233.7ZM306.46 233.7C303.753 233.7 301.42 233.117 299.46 231.95C297.547 230.737 296.053 229.033 294.98 226.84C293.953 224.6 293.44 221.917 293.44 218.79V195.97H303.38V217.18C303.38 218.86 303.66 220.33 304.22 221.59C304.78 222.803 305.573 223.737 306.6 224.39C307.627 225.043 308.887 225.37 310.38 225.37C311.453 225.37 312.457 225.207 313.39 224.88C314.323 224.507 315.117 223.993 315.77 223.34C316.423 222.687 316.937 221.917 317.31 221.03C317.683 220.143 317.87 219.187 317.87 218.16V195.97H327.81V233H318.36L318.01 225.37L319.83 224.53C319.27 226.257 318.337 227.82 317.03 229.22C315.723 230.62 314.16 231.717 312.34 232.51C310.52 233.303 308.56 233.7 306.46 233.7ZM355.382 233.7C351.368 233.7 347.868 232.883 344.882 231.25C341.895 229.617 339.562 227.377 337.882 224.53C336.202 221.683 335.362 218.417 335.362 214.73C335.362 211.883 335.828 209.27 336.762 206.89C337.695 204.51 339.002 202.457 340.682 200.73C342.362 198.957 344.345 197.603 346.632 196.67C348.965 195.69 351.485 195.2 354.192 195.2C356.712 195.2 359.045 195.667 361.192 196.6C363.338 197.487 365.182 198.77 366.722 200.45C368.308 202.083 369.522 204.02 370.362 206.26C371.202 208.5 371.575 210.95 371.482 213.61L371.412 216.69H341.662L340.052 210.6H363.222L362.102 211.86V210.32C362.008 209.06 361.588 207.917 360.842 206.89C360.142 205.863 359.232 205.07 358.112 204.51C356.992 203.95 355.732 203.67 354.332 203.67C352.278 203.67 350.528 204.067 349.082 204.86C347.682 205.653 346.608 206.82 345.862 208.36C345.115 209.9 344.742 211.767 344.742 213.96C344.742 216.2 345.208 218.137 346.142 219.77C347.122 221.403 348.475 222.687 350.202 223.62C351.975 224.507 354.052 224.95 356.432 224.95C358.065 224.95 359.558 224.693 360.912 224.18C362.265 223.667 363.712 222.78 365.252 221.52L370.012 228.17C368.658 229.383 367.165 230.41 365.532 231.25C363.898 232.043 362.218 232.65 360.492 233.07C358.765 233.49 357.062 233.7 355.382 233.7Z" fill="#1E90FF"/>
</svg>
